<mxfile host="app.diagrams.net" modified="2024-03-30T11:16:56.889Z" agent="Mozilla/5.0 (Windows NT 10.0; Win64; x64) AppleWebKit/537.36 (KHTML, like Gecko) Chrome/123.0.0.0 Safari/537.36" etag="HHiaphz8fCs0O2uXi3Wp" version="23.1.1" type="device">
  <diagram name="Page-1" id="OBpU4RdSvatVBAaSOLMV">
    <mxGraphModel dx="2074" dy="1098" grid="1" gridSize="10" guides="1" tooltips="1" connect="1" arrows="1" fold="1" page="1" pageScale="1" pageWidth="1654" pageHeight="1169" math="0" shadow="0">
      <root>
        <mxCell id="0" />
        <mxCell id="1" parent="0" />
        <mxCell id="csJ7Rke0Du6m9JC9TNU8-1" value="Commandes" style="swimlane;childLayout=stackLayout;horizontal=1;startSize=50;horizontalStack=0;rounded=1;fontSize=14;fontStyle=0;strokeWidth=2;resizeParent=0;resizeLast=1;shadow=0;dashed=0;align=center;arcSize=4;whiteSpace=wrap;html=1;" vertex="1" parent="1">
          <mxGeometry x="590" y="360" width="200" height="130" as="geometry" />
        </mxCell>
        <mxCell id="csJ7Rke0Du6m9JC9TNU8-2" value="&lt;u&gt;id_Commande&lt;/u&gt;&amp;nbsp; &amp;nbsp; &amp;nbsp; &amp;nbsp; INT&lt;br&gt;Date_Comande&amp;nbsp; &amp;nbsp; &amp;nbsp; DATE&lt;br&gt;Montant_Total&amp;nbsp; &amp;nbsp; &amp;nbsp; &amp;nbsp; &amp;nbsp;DECIMAL(25,2)&lt;br&gt;Quantite_Total&amp;nbsp; &amp;nbsp; &amp;nbsp; &amp;nbsp; VARCHAR(25)&amp;nbsp;&lt;br&gt;Statut&amp;nbsp; &amp;nbsp; &amp;nbsp; &amp;nbsp; &amp;nbsp; &amp;nbsp; &amp;nbsp; &amp;nbsp; &amp;nbsp; &amp;nbsp; &amp;nbsp; VARCHAR(15)" style="align=left;strokeColor=none;fillColor=none;spacingLeft=4;fontSize=12;verticalAlign=top;resizable=0;rotatable=0;part=1;html=1;" vertex="1" parent="csJ7Rke0Du6m9JC9TNU8-1">
          <mxGeometry y="50" width="200" height="80" as="geometry" />
        </mxCell>
        <mxCell id="csJ7Rke0Du6m9JC9TNU8-3" value="Alertes" style="swimlane;childLayout=stackLayout;horizontal=1;startSize=50;horizontalStack=0;rounded=1;fontSize=14;fontStyle=0;strokeWidth=2;resizeParent=0;resizeLast=1;shadow=0;dashed=0;align=center;arcSize=4;whiteSpace=wrap;html=1;" vertex="1" parent="1">
          <mxGeometry x="300" y="365" width="180" height="120" as="geometry" />
        </mxCell>
        <mxCell id="csJ7Rke0Du6m9JC9TNU8-4" value="&lt;u&gt;id_Alerte&lt;/u&gt;&amp;nbsp; &amp;nbsp; &amp;nbsp; &amp;nbsp; &amp;nbsp; &amp;nbsp; INT&lt;br&gt;Message&amp;nbsp; &amp;nbsp; &amp;nbsp; &amp;nbsp; &amp;nbsp; &amp;nbsp; VARCHAR(50)&lt;br&gt;Date_Alerte&amp;nbsp; &amp;nbsp; &amp;nbsp; &amp;nbsp;DATE&lt;br&gt;id_Commande&amp;nbsp; &amp;nbsp;INT" style="align=left;strokeColor=none;fillColor=none;spacingLeft=4;fontSize=12;verticalAlign=top;resizable=0;rotatable=0;part=1;html=1;" vertex="1" parent="csJ7Rke0Du6m9JC9TNU8-3">
          <mxGeometry y="50" width="180" height="70" as="geometry" />
        </mxCell>
        <mxCell id="csJ7Rke0Du6m9JC9TNU8-6" value="Correspondre" style="swimlane;childLayout=stackLayout;horizontal=1;startSize=50;horizontalStack=0;rounded=1;fontSize=14;fontStyle=0;strokeWidth=2;resizeParent=0;resizeLast=1;shadow=0;dashed=0;align=center;arcSize=4;whiteSpace=wrap;html=1;" vertex="1" parent="1">
          <mxGeometry x="910" y="377.5" width="140" height="95" as="geometry" />
        </mxCell>
        <mxCell id="csJ7Rke0Du6m9JC9TNU8-7" value="&lt;u&gt;id_Commande&lt;/u&gt;&amp;nbsp; &amp;nbsp; &amp;nbsp;INT&lt;br&gt;&lt;u&gt;id_Livraison&lt;/u&gt;&amp;nbsp; &amp;nbsp; &amp;nbsp; &amp;nbsp; &amp;nbsp;INT" style="align=left;strokeColor=none;fillColor=none;spacingLeft=4;fontSize=12;verticalAlign=top;resizable=0;rotatable=0;part=1;html=1;" vertex="1" parent="csJ7Rke0Du6m9JC9TNU8-6">
          <mxGeometry y="50" width="140" height="45" as="geometry" />
        </mxCell>
        <mxCell id="csJ7Rke0Du6m9JC9TNU8-9" value="Bon_De_Livraisons" style="swimlane;childLayout=stackLayout;horizontal=1;startSize=50;horizontalStack=0;rounded=1;fontSize=14;fontStyle=0;strokeWidth=2;resizeParent=0;resizeLast=1;shadow=0;dashed=0;align=center;arcSize=4;whiteSpace=wrap;html=1;" vertex="1" parent="1">
          <mxGeometry x="1160" y="365" width="210" height="120" as="geometry" />
        </mxCell>
        <mxCell id="csJ7Rke0Du6m9JC9TNU8-10" value="&lt;u&gt;id_Livraison&lt;/u&gt;&amp;nbsp; &amp;nbsp; &amp;nbsp; &amp;nbsp; &amp;nbsp; &amp;nbsp; &amp;nbsp;INT&lt;br&gt;Adresse&amp;nbsp; &amp;nbsp; &amp;nbsp; &amp;nbsp; &amp;nbsp; &amp;nbsp; &amp;nbsp; &amp;nbsp; &amp;nbsp; &amp;nbsp;VARCHAR(50)&lt;br&gt;Date_Livraison&amp;nbsp; &amp;nbsp; &amp;nbsp; &amp;nbsp; DATE&lt;br&gt;Numero_Livraison&amp;nbsp; &amp;nbsp;VARCHAR(25)" style="align=left;strokeColor=none;fillColor=none;spacingLeft=4;fontSize=12;verticalAlign=top;resizable=0;rotatable=0;part=1;html=1;" vertex="1" parent="csJ7Rke0Du6m9JC9TNU8-9">
          <mxGeometry y="50" width="210" height="70" as="geometry" />
        </mxCell>
        <mxCell id="csJ7Rke0Du6m9JC9TNU8-12" value="" style="endArrow=none;html=1;rounded=0;exitX=1;exitY=0.75;exitDx=0;exitDy=0;entryX=0;entryY=0.25;entryDx=0;entryDy=0;" edge="1" parent="1" source="csJ7Rke0Du6m9JC9TNU8-7" target="csJ7Rke0Du6m9JC9TNU8-10">
          <mxGeometry width="50" height="50" relative="1" as="geometry">
            <mxPoint x="800" y="590" as="sourcePoint" />
            <mxPoint x="850" y="540" as="targetPoint" />
          </mxGeometry>
        </mxCell>
        <mxCell id="csJ7Rke0Du6m9JC9TNU8-13" value="" style="endArrow=none;html=1;rounded=0;exitX=1.007;exitY=0.167;exitDx=0;exitDy=0;exitPerimeter=0;entryX=0;entryY=0.25;entryDx=0;entryDy=0;" edge="1" parent="1" source="csJ7Rke0Du6m9JC9TNU8-2" target="csJ7Rke0Du6m9JC9TNU8-7">
          <mxGeometry width="50" height="50" relative="1" as="geometry">
            <mxPoint x="800" y="590" as="sourcePoint" />
            <mxPoint x="850" y="540" as="targetPoint" />
          </mxGeometry>
        </mxCell>
        <mxCell id="csJ7Rke0Du6m9JC9TNU8-14" value="" style="endArrow=none;html=1;rounded=0;entryX=0;entryY=0.175;entryDx=0;entryDy=0;entryPerimeter=0;exitX=1.007;exitY=0.138;exitDx=0;exitDy=0;exitPerimeter=0;" edge="1" parent="1" source="csJ7Rke0Du6m9JC9TNU8-4" target="csJ7Rke0Du6m9JC9TNU8-2">
          <mxGeometry width="50" height="50" relative="1" as="geometry">
            <mxPoint x="480" y="430" as="sourcePoint" />
            <mxPoint x="590" y="420" as="targetPoint" />
          </mxGeometry>
        </mxCell>
      </root>
    </mxGraphModel>
  </diagram>
</mxfile>
